
        <svg xmlns="http://www.w3.org/2000/svg" xmlns:xlink="http://www.w3.org/1999/xlink" version="1.1" width="3168.5393258426966" 
        height="1089.1427500327798" viewBox="0 0 3168.5393258426966 1089.1427500327798">
			
			<g transform="scale(8.426966292134832) translate(10, 10)">
				<defs id="SvgjsDefs1013"></defs><g id="SvgjsG1014" featureKey="symbolFeature-0" transform="matrix(1.2138308108473534,0,0,1.2138308108473534,-10.690907335567655,-6.068983887144259)" fill="#070d59"><path xmlns="http://www.w3.org/2000/svg" d="M25.687,50.333c-0.001,0.038-0.001,0.079,0,0.116l1.5,38.717l1.5-38.717c0.032-0.828-0.613-1.526-1.442-1.558  C26.417,48.859,25.719,49.505,25.687,50.333z"></path><path xmlns="http://www.w3.org/2000/svg" d="M14.284,49.819c-0.001,0.032-0.001,0.068,0,0.1L15.784,95l1.5-45.081c0.028-0.828-0.622-1.522-1.45-1.55  C15.006,48.341,14.312,48.991,14.284,49.819z"></path><path xmlns="http://www.w3.org/2000/svg" d="M84.531,49.602c-0.828-0.036-1.529,0.607-1.565,1.435c-0.002,0.043-0.002,0.088,0,0.13l1.5,34.739l1.5-34.739  C86.002,50.338,85.36,49.638,84.531,49.602z"></path><path xmlns="http://www.w3.org/2000/svg" d="M71.033,51.327c-0.001,0.034-0.001,0.071,0,0.105l1.5,42.96l1.5-42.96c0.029-0.828-0.619-1.523-1.448-1.552  S71.062,50.499,71.033,51.327z"></path><path xmlns="http://www.w3.org/2000/svg" d="M41.598,40.741c-0.001,0.026-0.001,0.057,0,0.084l1.5,53.832l1.5-53.832c0.023-0.828-0.63-1.519-1.458-1.542  C42.311,39.26,41.621,39.912,41.598,40.741z"></path><path xmlns="http://www.w3.org/2000/svg" d="M48.493,37.346c-0.001,0.031-0.001,0.066,0,0.096l1.5,46.672l1.5-46.672c0.027-0.828-0.623-1.522-1.452-1.548  C49.213,35.868,48.52,36.518,48.493,37.346z"></path><path xmlns="http://www.w3.org/2000/svg" d="M56.448,40.467c-0.001,0.029-0.001,0.063,0,0.092l1.5,48.794l1.5-48.794c0.025-0.828-0.625-1.521-1.454-1.546  C57.166,38.988,56.474,39.639,56.448,40.467z"></path><path xmlns="http://www.w3.org/2000/svg" d="M66.594,20.502c1.008-0.8,1.177-2.266,0.378-3.274c-0.413-0.521-1.003-0.817-1.616-0.873l-0.112-0.01l-5.517-0.479  c-1.278-0.108-2.556-0.22-3.835-0.321l-3.383-8.818c-0.532-1.387-2.087-2.08-3.474-1.548c-0.738,0.283-1.283,0.866-1.548,1.548  l-3.383,8.822c-1.279,0.103-2.557,0.219-3.835,0.323l-5.517,0.478l-0.102,0.009c-1.28,0.111-2.227,1.238-2.116,2.518  c0.057,0.66,0.391,1.237,0.871,1.62c1.445,1.148,2.937,2.239,4.407,3.357l3.543,2.672c-0.629,3.203-1.286,6.399-1.84,9.622  l-0.032,0.187c-0.107,0.624,0.311,1.216,0.935,1.323c0.322,0.055,0.639-0.032,0.882-0.213c1.394-1.047,2.797-2.134,4.233-3.28  l4.464-3.524l4.463,3.527c1.436,1.147,2.838,2.233,4.231,3.281c0.508,0.382,1.229,0.28,1.611-0.228  c0.198-0.263,0.266-0.582,0.215-0.883l-0.033-0.193c-0.553-3.221-1.208-6.416-1.838-9.618l3.541-2.669  C63.66,22.745,65.148,21.649,66.594,20.502z M59.042,36.049l-9.045-5.708l-9.045,5.708l2.691-10.27  c0.021-0.081-0.009-0.164-0.07-0.215l-8.058-6.672l10.446-0.605c0.108-0.006,0.197-0.077,0.235-0.171l3.802-9.589l3.801,9.59  c0.039,0.101,0.134,0.164,0.235,0.171l10.444,0.605l-8.057,6.671c-0.065,0.053-0.089,0.139-0.07,0.215L59.042,36.049z"></path><path xmlns="http://www.w3.org/2000/svg" d="M33.314,35.331c1.011-0.788,1.192-2.247,0.404-3.258c-0.405-0.52-0.987-0.82-1.595-0.882l-0.16-0.016l-3.765-0.373  c-0.691-0.066-1.381-0.137-2.072-0.202l-2.11-5.563c-0.525-1.387-2.076-2.085-3.463-1.56c-0.745,0.282-1.295,0.871-1.56,1.56  l-2.11,5.569c-0.69,0.068-1.381,0.14-2.071,0.203l-3.765,0.372l-0.15,0.015c-1.273,0.126-2.204,1.26-2.078,2.533  c0.065,0.654,0.401,1.222,0.88,1.599c0.994,0.776,2.034,1.495,3.052,2.241l2.216,1.603c-0.348,2.054-0.712,4.104-0.987,6.177  l-0.037,0.278c-0.082,0.615,0.351,1.18,0.966,1.261c0.318,0.042,0.625-0.055,0.856-0.242c0.901-0.733,1.81-1.505,2.754-2.336  l2.984-2.58l2.984,2.583c0.943,0.832,1.852,1.603,2.752,2.337c0.483,0.394,1.193,0.321,1.587-0.161  c0.204-0.25,0.282-0.56,0.244-0.857l-0.038-0.285c-0.274-2.072-0.637-4.12-0.985-6.172l2.214-1.6  C31.283,36.831,32.319,36.106,33.314,35.331z M27.59,45.251l-6.085-3.821l-6.086,3.822l1.81-6.873  c0.021-0.081-0.009-0.164-0.07-0.215l-5.349-4.44l6.942-0.393c0.107-0.006,0.197-0.077,0.235-0.171l2.517-6.325l2.516,6.326  c0.039,0.101,0.134,0.164,0.235,0.171l6.941,0.393l-5.347,4.439c-0.065,0.053-0.089,0.139-0.07,0.215L27.59,45.251z"></path><path xmlns="http://www.w3.org/2000/svg" d="M90.297,36.314c1.011-0.788,1.192-2.247,0.404-3.258c-0.405-0.52-0.987-0.82-1.595-0.882l-0.16-0.016l-3.765-0.373  c-0.691-0.066-1.381-0.137-2.072-0.202l-2.11-5.563c-0.525-1.387-2.076-2.085-3.463-1.56c-0.745,0.282-1.295,0.871-1.56,1.56  l-2.11,5.569c-0.69,0.068-1.381,0.14-2.071,0.203l-3.765,0.372l-0.149,0.015c-1.273,0.126-2.204,1.26-2.078,2.533  c0.065,0.654,0.401,1.222,0.88,1.599c0.994,0.776,2.034,1.495,3.052,2.241l2.216,1.603c-0.348,2.054-0.712,4.104-0.987,6.177  l-0.037,0.278c-0.082,0.615,0.351,1.18,0.966,1.261c0.318,0.042,0.625-0.055,0.856-0.242c0.901-0.733,1.81-1.505,2.754-2.336  l2.984-2.58l2.984,2.583c0.943,0.832,1.852,1.603,2.752,2.337c0.483,0.394,1.193,0.321,1.587-0.161  c0.204-0.25,0.283-0.56,0.244-0.857l-0.038-0.285c-0.274-2.072-0.637-4.12-0.985-6.172l2.214-1.6  C88.266,37.813,89.302,37.089,90.297,36.314z M84.574,46.233l-6.085-3.821l-6.086,3.822l1.81-6.873  c0.021-0.081-0.009-0.164-0.07-0.215l-5.349-4.44l6.942-0.393c0.107-0.006,0.197-0.077,0.235-0.171l2.517-6.326l2.516,6.326  c0.039,0.101,0.134,0.164,0.235,0.171l6.941,0.393l-5.347,4.439c-0.065,0.053-0.089,0.139-0.07,0.215L84.574,46.233z"></path></g><g id="SvgjsG1015" featureKey="textGroupContainer" transform="matrix(1,0,0,1,355,34)" fill="#070d59"><rect xmlns="http://www.w3.org/2000/svg" y="0" height="1" width="1" opacity="0"></rect><rect xmlns="http://www.w3.org/2000/svg" y="0" x="-235" width="3" height="42"></rect></g><g id="SvgjsG1016" featureKey="vMvB0T-0" transform="matrix(1.5003750594239962,0,0,1.5003750594239962,137.54988862686812,35.96773930914661)" fill="#070d59"><path d="M0.3 18.82 q0.06 -0.66 0.41 -1.32 t0.83 -1.08 q2.14 1.3 4.06 1.3 q0.84 0 1.23 -0.38 t0.39 -0.94 q0 -0.94 -1.26 -1.48 l-2.36 -1 q-1.38 -0.62 -2.12 -1.49 t-0.74 -2.21 q0 -0.92 0.37 -1.68 t1.04 -1.32 t1.59 -0.87 t2.04 -0.31 q2.24 0 4.52 1.14 q-0.1 1.54 -1.08 2.4 q-2.04 -0.98 -3.6 -0.98 q-0.8 0 -1.2 0.36 t-0.4 0.82 q0 0.78 1.18 1.26 l2.4 1.02 q1.52 0.64 2.27 1.64 t0.75 2.32 q0 0.94 -0.34 1.72 t-1.01 1.35 t-1.67 0.89 t-2.34 0.32 q-2.6 0 -4.96 -1.48 z M17.44 15.719999999999999 l-1.58 0 l0 4.28 q-0.64 0.12 -1.6 0.12 q-0.98 0 -1.6 -0.12 l0 -13.56 l0.14 -0.14 q1.74 -0.04 2.89 -0.06 t1.75 -0.02 q1.1 0 2.01 0.3 t1.55 0.9 t0.99 1.49 t0.35 2.05 t-0.36 2.05 t-1 1.49 t-1.55 0.91 t-1.99 0.31 z M15.86 8.66 l0 4.66 q0.56 -0.02 0.89 -0.03 t0.43 -0.01 q0.54 0 0.9 -0.19 t0.58 -0.5 t0.32 -0.73 t0.1 -0.88 q0 -0.44 -0.1 -0.86 t-0.31 -0.74 t-0.55 -0.51 t-0.8 -0.19 l-0.82 0 t-0.64 -0.02 z M26.560000000000002 17.14 q-0.54 0 -0.8 -0.02 l-0.86 2.9 q-0.48 0.12 -1.34 0.12 q-0.96 0 -1.56 -0.22 l-0.1 -0.16 l4.4 -13.42 q0.78 -0.12 1.82 -0.12 q1.18 0 1.88 0.14 l4.32 13.44 q-0.7 0.38 -1.58 0.38 q-1.04 0 -1.46 -0.36 t-0.72 -1.38 l-0.38 -1.32 q-0.26 0.02 -0.78 0.02 l-2.84 0 z M26.500000000000004 14.620000000000001 l0.8 -0.02 l1.46 0 q0.1 0 0.35 0.01 t0.37 0.01 l-0.34 -1.24 q-0.48 -1.68 -1.1 -4.12 l-0.12 0 q-0.16 0.86 -0.96 3.82 z M43.14 11.78 l0 -0.24 q0 -2.96 -2.2 -2.96 q-1.26 0 -1.82 1.15 t-0.56 3.39 q0 2.22 0.7 3.3 t2.04 1.08 q0.7 0 1.55 -0.33 t1.85 -1.05 q0.5 0.34 0.93 0.93 t0.53 1.13 q-0.46 0.44 -1.07 0.83 t-1.32 0.67 t-1.48 0.45 t-1.55 0.17 q-1.54 0 -2.6 -0.59 t-1.71 -1.57 t-0.94 -2.26 t-0.29 -2.66 q0 -1.8 0.45 -3.15 t1.22 -2.25 t1.81 -1.35 t2.22 -0.45 q1.2 0 2.18 0.32 t1.67 0.88 t1.06 1.32 t0.37 1.64 q0 1.78 -1.82 1.78 q-0.54 0 -1.22 -0.18 z M51.32000000000001 15.96 l-0.02 1.44 l0 0.02 q0.92 -0.04 1.48 -0.04 l4.64 0 q0 0.74 -0.06 1.14 q-0.24 1.54 -2.04 1.54 l-5.32 0 q-0.86 0 -1.35 -0.5 t-0.49 -1.36 l0 -11.72 l0.14 -0.14 l8.62 0 q0.12 0.58 0.12 1.26 t-0.28 1.42 l-5.46 0 l0.02 1.44 l0 1.4 q0.52 -0.02 1.36 -0.02 l3.06 0 q0.18 0.56 0.18 1.28 t-0.18 1.32 l-4.42 0 l0 1.52 z M64.82000000000001 8.98 l0.02 1.48 l0 9.54 q-0.68 0.12 -1.62 0.12 t-1.58 -0.12 l0 -11.02 l-1.28 0.02 l-2.06 0 q-0.12 -0.58 -0.12 -1.33 t0.12 -1.33 l9.9 0 q0.16 0.52 0.16 1.26 t-0.4 1.07 t-1.28 0.33 l-0.58 0 l-1.26 -0.02 l-0.02 0 z M71.96000000000001 17.14 q-0.54 0 -0.8 -0.02 l-0.86 2.9 q-0.48 0.12 -1.34 0.12 q-0.96 0 -1.56 -0.22 l-0.1 -0.16 l4.4 -13.42 q0.78 -0.12 1.82 -0.12 q1.18 0 1.88 0.14 l4.32 13.44 q-0.7 0.38 -1.58 0.38 q-1.04 0 -1.46 -0.36 t-0.72 -1.38 l-0.38 -1.32 q-0.26 0.02 -0.78 0.02 l-2.84 0 z M71.9 14.620000000000001 l0.8 -0.02 l1.46 0 q0.1 0 0.35 0.01 t0.37 0.01 l-0.34 -1.24 q-0.48 -1.68 -1.1 -4.12 l-0.12 0 q-0.16 0.86 -0.96 3.82 z M86.68 12.24 l3.14 -0.02 q2.12 0 2.12 2 l0 5.26 q-2.58 0.82 -5.42 0.82 q-1.44 0 -2.55 -0.48 t-1.86 -1.38 t-1.13 -2.21 t-0.38 -2.97 q0 -1.82 0.53 -3.17 t1.42 -2.25 t2.05 -1.35 t2.42 -0.45 q2.6 0 4.88 1.44 q-0.02 0.32 -0.15 0.65 t-0.32 0.64 t-0.44 0.56 t-0.51 0.43 q-1.66 -1.08 -3.36 -1.08 q-3.26 0 -3.26 4.56 q0 4.54 3.34 4.54 q0.46 0 0.89 -0.04 t0.85 -0.12 l0 -1.34 q0 -0.46 0.01 -0.8 t0.03 -0.58 l-1 0 q-0.86 0 -1.19 -0.33 t-0.33 -1.03 q0 -0.6 0.22 -1.3 z M104.28 10.56 q0 0.66 -0.2 1.25 t-0.53 1.06 t-0.78 0.82 t-0.93 0.53 q1.04 0.38 1.54 1.84 l0.6 1.7 q0.34 1 1 1.48 q-0.3 0.4 -0.9 0.67 t-1.32 0.27 t-1.12 -0.41 t-0.74 -1.43 l-0.72 -2.1 q-0.22 -0.6 -0.59 -0.92 t-1.11 -0.32 l-0.82 0 l0 5 q-0.64 0.12 -1.6 0.12 t-1.58 -0.12 l0 -13.56 l0.14 -0.14 q1.74 -0.04 2.93 -0.06 t1.87 -0.02 q1.1 0 2 0.27 t1.53 0.81 t0.98 1.36 t0.35 1.9 z M97.66000000000001 8.62 l0 3.92 q0.9 0 1.54 -0.03 t1.03 -0.24 t0.59 -0.59 t0.2 -1.1 q0 -1.94 -1.88 -1.94 l-0.83 0 t-0.65 -0.02 z M110.10000000000001 17.14 q-0.54 0 -0.8 -0.02 l-0.86 2.9 q-0.48 0.12 -1.34 0.12 q-0.96 0 -1.56 -0.22 l-0.1 -0.16 l4.4 -13.42 q0.78 -0.12 1.82 -0.12 q1.18 0 1.88 0.14 l4.32 13.44 q-0.7 0.38 -1.58 0.38 q-1.04 0 -1.46 -0.36 t-0.72 -1.38 l-0.38 -1.32 q-0.26 0.02 -0.78 0.02 l-2.84 0 z M110.04 14.620000000000001 l0.8 -0.02 l1.46 0 q0.1 0 0.35 0.01 t0.37 0.01 l-0.34 -1.24 q-0.48 -1.68 -1.1 -4.12 l-0.12 0 q-0.16 0.86 -0.96 3.82 z M119.12 19.96 l1.06 -13.6 q0.88 -0.16 2.08 -0.16 t2.1 0.16 l1.18 4.9 q0.7 3.32 0.74 3.62 l0.14 0 q0.08 -0.5 0.74 -3.62 l1.2 -4.9 q0.88 -0.16 2.08 -0.16 t2.1 0.16 l1.06 13.6 q-0.62 0.16 -1.53 0.16 t-1.49 -0.1 l-0.32 -5.56 q-0.14 -3.32 -0.16 -4.62 l-0.12 0 l-1.98 8.14 q-0.72 0.12 -1.65 0.12 t-1.65 -0.12 l-1.96 -8.14 l-0.14 0 q0 1.78 -0.16 4.62 l-0.3 5.56 q-0.58 0.1 -1.49 0.1 t-1.53 -0.16 z"></path></g>
			</g>
		</svg>
	